<svg id="Слой_1" data-name="Слой 1" xmlns="http://www.w3.org/2000/svg" viewBox="0 0 394.76 118.75">
  <defs>
    <style>
      .cls-1 {
        fill: #51ae3e;
      }

      .cls-2 {
        fill: #0e5531;
      }

      .cls-3 {
        fill: #010101;
      }

      .cls-4 {
        fill: #1e1e1c;
      }
    </style>
  </defs>
  <path class="cls-1" d="M73.87,127.24S22.45,112.06,22.45,37.16V8.49H125.28V37.16c0,72.22-51.41,90.08-51.41,90.08" transform="translate(-22.45 -8.49)"/>
  <path class="cls-2" d="M103.55,37.38H62.14V61.19h41.42v7.12c0,12-3.41,21.77-21.73,21.82H62.14v31.42a53.65,53.65,0,0,0,11.73,5.69s51.41-17.86,51.41-90.08V15.55c0,12.06-5.33,21.61-21.73,21.83" transform="translate(-22.45 -8.49)"/>
  <path class="cls-3" d="M153.88,79.48h10.4c9.21,0,15.1,5.36,15.1,14.58s-5.89,14.69-15.1,14.69h-10.4ZM164,102.61c4.95,0,8-3,8-8.55s-3.15-8.44-8-8.44h-3v17Z" transform="translate(-22.45 -8.49)"/>
  <path class="cls-3" d="M184.05,79.48h10.19a15.15,15.15,0,0,1,5.69.7c3.32,1.27,5.4,4.26,5.4,8.51,0,3.11-1.47,6.51-4.38,8v.09a16.7,16.7,0,0,1,1.11,1.76l5.69,10.23h-8l-5.2-9.86h-3.36v9.86h-7.16Zm10.27,13.26c2.29,0,3.73-1.26,3.73-3.6,0-1.47-.37-2.58-1.72-3.11a7,7,0,0,0-2.7-.41h-2.42v7.12Z" transform="translate(-22.45 -8.49)"/>
  <rect class="cls-3" x="188.53" y="70.99" width="7.17" height="29.27"/>
  <path class="cls-3" d="M221,79.48h7.77l5.16,16.66c.57,1.84,1.11,4.71,1.11,4.71h.08s.53-2.87,1.1-4.71l5.24-16.66h7.66l-10.32,29.27h-7.45Z" transform="translate(-22.45 -8.49)"/>
  <polygon class="cls-3" points="229.46 70.99 247.8 70.99 247.8 77.13 236.63 77.13 236.63 82.46 245.55 82.46 245.55 88.6 236.63 88.6 236.63 94.12 248.37 94.12 248.37 100.26 229.46 100.26 229.46 70.99"/>
  <path class="cls-4" d="M154.05,66V25.52h24.78v3A5.51,5.51,0,0,1,173.32,34H164v8.48h12.34v2.88A5.62,5.62,0,0,1,170.67,51H164V66Z" transform="translate(-22.45 -8.49)"/>
  <path class="cls-4" d="M194.33,43.85h4.3a5.24,5.24,0,0,0,3.79-1.3,4.84,4.84,0,0,0,1.36-3.68c0-2.22-.79-3.66-2.37-4.3a9.9,9.9,0,0,0-3.74-.56h-3.34ZM184.43,66V25.52h14.09a23.6,23.6,0,0,1,7.87,1,11.23,11.23,0,0,1,5.48,4.38,13.21,13.21,0,0,1,2,7.39,14,14,0,0,1-1.58,6.48,10.2,10.2,0,0,1-4.47,4.55v.12a23.67,23.67,0,0,1,1.53,2.43L217.19,66h-11L199,52.34h-4.64V66Z" transform="translate(-22.45 -8.49)"/>
  <polygon class="cls-4" points="199.21 57.48 199.21 17.03 224.56 17.03 224.56 25.52 209.12 25.52 209.12 32.87 221.45 32.87 221.45 41.36 209.12 41.36 209.12 49 225.36 49 225.36 57.48 199.21 57.48"/>
  <polygon class="cls-4" points="231.69 57.48 231.69 17.03 257.04 17.03 257.04 25.52 241.59 25.52 241.59 32.87 253.93 32.87 253.93 41.36 241.59 41.36 241.59 49 257.83 49 257.83 57.48 231.69 57.48"/>
  <path class="cls-4" d="M296.52,57.49h4.08c3.46,0,6.17-1,8.11-3.06s2.92-5,2.92-8.77-1-6.65-2.94-8.66a10.82,10.82,0,0,0-8.09-3h-4.08ZM286.62,66V25.52H301q9.61,0,15.25,5.34t5.63,14.8q0,9.51-5.63,14.91T301,66Z" transform="translate(-22.45 -8.49)"/>
  <path class="cls-4" d="M336.35,45.49a12.54,12.54,0,0,0,3.08,8.66,10.63,10.63,0,0,0,15.68,0,12.5,12.5,0,0,0,3.08-8.66,11.68,11.68,0,0,0-3.08-8.29,10.94,10.94,0,0,0-15.68,0,11.72,11.72,0,0,0-3.08,8.29m-10.24,0a20,20,0,0,1,5.94-14.74q5.94-5.91,15.23-5.91t15.22,5.91a20,20,0,0,1,5.94,14.74A20.73,20.73,0,0,1,362.5,60.6q-6,6.06-15.22,6.05T332.05,60.6a20.73,20.73,0,0,1-5.94-15.11" transform="translate(-22.45 -8.49)"/>
  <path class="cls-4" d="M373.13,66l3.34-40.45h10.75l5.88,17.09,2,6.67h.12c.75-2.71,1.43-4.94,2-6.67l5.89-17.09h10.75L417.21,66h-9.9l-1.25-18.22c-.07-.9-.11-1.92-.11-3s0-2,.05-2.72l.06-1H406q-1.36,4.24-2.26,6.78l-4.24,11.72H391l-4.25-11.72L384.45,41h-.11a54.64,54.64,0,0,1,0,6.78L383.09,66Z" transform="translate(-22.45 -8.49)"/>
</svg>
