<?xml version="1.0" encoding="UTF-8" standalone="no"?>
<svg
   xmlns:dc="http://purl.org/dc/elements/1.1/"
   xmlns:cc="http://creativecommons.org/ns#"
   xmlns:rdf="http://www.w3.org/1999/02/22-rdf-syntax-ns#"
   xmlns:svg="http://www.w3.org/2000/svg"
   xmlns="http://www.w3.org/2000/svg"
   viewBox="0 0 300.60001 90.360001"
   height="90.360001"
   width="300.60001"
   xml:space="preserve"
   id="svg2"
   version="1.1"><metadata
     id="metadata8"><rdf:RDF><cc:Work
         rdf:about=""><dc:format>image/svg+xml</dc:format><dc:type
           rdf:resource="http://purl.org/dc/dcmitype/StillImage" /></cc:Work></rdf:RDF></metadata><defs
     id="defs6" /><g
     transform="matrix(1.3333333,0,0,-1.3333333,0,90.36)"
     id="g10"><g
       transform="scale(0.1)"
       id="g12"><path
         id="path14"
         style="fill:#4dbd41;fill-opacity:1;fill-rule:nonzero;stroke:none"
         d="M 293.441,0 C 293.441,0 0,86.6211 0,514.117 V 677.719 H 586.887 V 514.117 C 586.887,101.914 293.441,0 293.441,0" /><path
         id="path16"
         style="fill:#231f20;fill-opacity:1;fill-rule:nonzero;stroke:none"
         d="m 749.91,349.477 v 231.308 h 141.695 v -17.047 c 0,-17.39 -14.093,-31.488 -31.488,-31.488 h -53.59 v -48.523 h 70.528 v -16.438 c 0,-17.723 -14.364,-32.09 -32.09,-32.09 H 806.527 V 349.477 H 749.91" /><path
         id="path18"
         style="fill:#231f20;fill-opacity:1;fill-rule:nonzero;stroke:none"
         d="m 923.629,349.477 v 231.308 h 80.551 c 20.49,0 35.48,-1.836 44.97,-5.508 13.37,-5.148 23.83,-13.515 31.39,-25.054 7.54,-11.551 11.31,-25.614 11.31,-42.231 0,-12.933 -3.02,-25.281 -9.05,-37.031 -6.04,-11.766 -14.57,-20.445 -25.57,-26.059 v -0.644 c 2.16,-2.797 5.07,-7.438 8.75,-13.906 l 44.96,-80.875 h -63.09 l -41.08,77.98 h -26.528 v -77.98 z m 56.613,126.5 h 24.588 c 9.27,0 16.49,2.468 21.67,7.437 5.18,4.945 7.76,11.957 7.76,21.016 0,12.742 -4.52,20.941 -13.57,24.597 -4.97,2.149 -12.09,3.223 -21.358,3.223 h -19.09 v -56.273" /><path
         id="path20"
         style="fill:#231f20;fill-opacity:1;fill-rule:nonzero;stroke:none"
         d="m 1136.5,349.477 v 231.308 h 144.95 V 532.25 h -88.33 v -42.039 h 70.52 v -48.527 h -70.52 v -43.68 h 92.85 V 349.477 H 1136.5" /><path
         id="path22"
         style="fill:#231f20;fill-opacity:1;fill-rule:nonzero;stroke:none"
         d="m 1322.2,349.477 v 231.308 h 144.93 V 532.25 h -88.32 v -42.039 h 70.53 v -48.527 h -70.53 v -43.68 h 92.85 V 349.477 H 1322.2" /><path
         id="path24"
         style="fill:#231f20;fill-opacity:1;fill-rule:nonzero;stroke:none"
         d="m 1507.89,349.477 v 231.308 h 82.17 c 36.65,0 65.71,-10.18 87.18,-30.562 21.46,-20.395 32.2,-48.598 32.2,-84.618 0,-36.218 -10.74,-64.632 -32.2,-85.234 -21.47,-20.598 -50.53,-30.894 -87.18,-30.894 z m 56.61,48.527 h 23.29 c 19.84,0 35.33,5.812 46.42,17.461 11.12,11.644 16.66,28.367 16.66,50.14 0,21.579 -5.61,38.071 -16.81,49.5 -11.23,11.45 -26.65,17.145 -46.27,17.145 H 1564.5 V 398.004" /><path
         id="path26"
         style="fill:#231f20;fill-opacity:1;fill-rule:nonzero;stroke:none"
         d="m 1733.68,466.582 c 0,33.66 11.34,61.727 33.97,84.293 22.65,22.527 51.65,33.801 87.04,33.801 35.36,0 64.36,-11.274 87.02,-33.801 22.65,-22.566 33.95,-50.633 33.95,-84.293 0,-34.492 -11.3,-63.289 -33.95,-86.379 -22.66,-23.074 -51.66,-34.601 -87.02,-34.601 -35.39,0 -64.39,11.527 -87.04,34.601 -22.63,23.09 -33.97,51.887 -33.97,86.379 m 58.55,0 c 0,-19.844 5.88,-36.328 17.62,-49.504 11.76,-13.133 26.72,-19.726 44.84,-19.726 18.1,0 33.03,6.593 44.79,19.726 11.75,13.176 17.63,29.66 17.63,49.504 0,18.973 -5.88,34.797 -17.63,47.418 -11.76,12.605 -26.69,18.898 -44.79,18.898 -18.12,0 -33.08,-6.293 -44.84,-18.898 -11.74,-12.621 -17.62,-28.445 -17.62,-47.418" /><path
         id="path28"
         style="fill:#231f20;fill-opacity:1;fill-rule:nonzero;stroke:none"
         d="m 2002.52,349.477 19.08,231.308 h 61.48 l 33.64,-97.691 11.64,-38.192 h 0.65 c 4.32,15.532 8.2,28.278 11.65,38.192 l 33.64,97.691 h 61.48 l 18.76,-231.308 h -56.61 l -7.12,104.175 c -0.45,5.172 -0.64,10.993 -0.64,17.461 0,6.485 0.08,11.645 0.3,15.543 l 0.34,5.805 h -0.64 c -5.19,-16.172 -9.51,-29.106 -12.94,-38.809 l -24.27,-66.972 h -48.53 l -24.26,66.972 -12.95,38.809 h -0.65 c 0.86,-14.231 0.86,-27.164 0,-38.809 l -7.11,-104.175 h -56.94" /><path
         id="path30"
         style="fill:#1c5030;fill-opacity:1;fill-rule:nonzero;stroke:none"
         d="M 462.848,512.82 H 226.508 V 376.977 h 236.375 v -40.645 c 0,-68.773 -19.406,-124.273 -123.977,-124.527 H 226.508 V 32.4492 C 265.316,8.30859 293.438,0 293.438,0 c 0,0 293.441,101.902 293.441,514.121 v 123.281 c 0,-68.8 -30.41,-123.32 -124.031,-124.582" /><path
         id="path32"
         style="fill:#090a0b;fill-opacity:1;fill-rule:nonzero;stroke:none"
         d="m 745.129,116.648 13.387,162.258 h 43.117 l 23.601,-68.535 8.172,-26.777 h 0.453 c 3.028,10.886 5.75,19.812 8.172,26.777 l 23.594,68.535 h 43.113 l 13.168,-162.258 h -39.711 l -5,73.071 c -0.3,3.629 -0.449,7.722 -0.449,12.254 0,4.539 0.078,8.172 0.227,10.898 l 0.222,4.082 h -0.449 c -3.633,-11.348 -6.656,-20.422 -9.078,-27.234 l -17.012,-46.977 h -34.043 l -17.023,46.977 -9.07,27.234 h -0.461 c 0.605,-9.98 0.605,-19.062 0,-27.234 l -4.989,-73.071 h -39.941" /><path
         id="path34"
         style="fill:#090a0b;fill-opacity:1;fill-rule:nonzero;stroke:none"
         d="m 982.043,198.801 c 0,-13.926 4.109,-25.5 12.363,-34.719 8.244,-9.23 18.724,-13.848 31.424,-13.848 12.72,0 23.18,4.618 31.44,13.848 8.24,9.219 12.36,20.793 12.36,34.719 0,13.308 -4.12,24.39 -12.36,33.242 -8.26,8.855 -18.72,13.277 -31.44,13.277 -12.7,0 -23.18,-4.422 -31.424,-13.277 -8.254,-8.852 -12.363,-19.934 -12.363,-33.242 z m -41.074,0 c 0,23.601 7.937,43.297 23.816,59.109 15.891,15.813 36.235,23.723 61.045,23.723 24.81,0 45.17,-7.91 61.05,-23.723 15.88,-15.812 23.82,-35.508 23.82,-59.109 0,-24.211 -7.94,-44.406 -23.82,-60.586 -15.88,-16.195 -36.24,-24.289 -61.05,-24.289 -24.81,0 -45.154,8.094 -61.045,24.289 -15.879,16.18 -23.816,36.375 -23.816,60.586" /><path
         id="path36"
         style="fill:#090a0b;fill-opacity:1;fill-rule:nonzero;stroke:none"
         d="m 1175.61,150.691 h 23.82 c 5.45,0 9.69,1.622 12.72,4.875 3.02,3.25 4.53,7.293 4.53,12.137 0,4.848 -1.44,8.82 -4.31,11.914 -2.88,3.106 -7.12,4.66 -12.7,4.66 h -24.06 z m 0,65.356 h 20.43 c 4.68,0 8.24,1.433 10.66,4.312 2.42,2.871 3.63,6.426 3.63,10.664 0,4.082 -1.25,7.415 -3.75,9.985 -2.49,2.566 -6.24,3.855 -11.23,3.855 h -19.74 z m -39.71,-99.399 v 162.258 h 59.68 c 16.64,0 29.99,-3.672 40.05,-11.008 10.06,-7.343 15.09,-17.808 15.09,-31.433 0,-6.953 -1.67,-13.574 -4.99,-19.856 -3.33,-6.277 -7.95,-11.16 -13.85,-14.636 v -0.45 c 8.63,-2.578 15.02,-7.304 19.18,-14.187 4.16,-6.887 6.24,-14.328 6.24,-22.348 0,-16.492 -5.83,-28.672 -17.47,-36.543 -11.66,-7.859 -26.4,-11.797 -44.25,-11.797 h -59.68" /><path
         id="path38"
         style="fill:#090a0b;fill-opacity:1;fill-rule:nonzero;stroke:none"
         d="m 1282.72,116.648 v 162.258 h 39.7 V 116.648 h -39.7" /><path
         id="path40"
         style="fill:#090a0b;fill-opacity:1;fill-rule:nonzero;stroke:none"
         d="m 1356.47,116.648 v 162.258 h 39.7 V 150.691 h 66.27 v -34.043 h -105.97" /><path
         id="path42"
         style="fill:#090a0b;fill-opacity:1;fill-rule:nonzero;stroke:none"
         d="m 1481.73,116.648 v 162.258 h 101.66 v -34.043 h -61.95 v -29.504 h 49.47 v -34.031 h -49.47 v -30.637 h 65.13 v -34.043 h -104.84" /></g></g></svg>